Coordinates
version=1
nRows=16
nColumns=40
inDegrees=yes

Units are S.I. units (second, meters, Newtons, ...)
Angles are in degrees.

endheader
time	pelvis_tilt	pelvis_list	pelvis_rotation	pelvis_tx	pelvis_ty	pelvis_tz	hip_flexion_r	hip_adduction_r	hip_rotation_r	knee_angle_r	knee_angle_r_beta	ankle_angle_r	subtalar_angle_r	mtp_angle_r	hip_flexion_l	hip_adduction_l	hip_rotation_l	knee_angle_l	knee_angle_l_beta	ankle_angle_l	subtalar_angle_l	mtp_angle_l	lumbar_extension	lumbar_bending	lumbar_rotation	arm_flex_r	arm_add_r	arm_rot_r	elbow_flex_r	pro_sup_r	wrist_flex_r	wrist_dev_r	arm_flex_l	arm_add_l	arm_rot_l	elbow_flex_l	pro_sup_l	wrist_flex_l	wrist_dev_l
      0.00000000	     -3.59155542	      0.73921935	     -1.82875394	     -1.07484724	      0.89215182	      1.06930414	     16.43898750	     -6.54961403	     -7.86553882	    -62.45814694	     -1.09010031	     -1.51742652	    -16.99260671	     20.25679468	     21.15245080	     -0.69841084	     10.90222991	    -31.54059241	     -0.55048719	      9.83053318	     12.34990589	      2.75288941	     -2.43841524	     -2.02712195	     -2.94985894	     -0.85356015	     -9.07663176	    -16.00113804	     23.76713068	     89.95437384	      0.00000000	      0.00000000	      0.48451892	     10.79094604	     19.08086218	     30.62433857	     89.95437384	      0.00000000	      0.00000000
      0.01000000	     -3.51188551	      0.57454455	     -1.57911852	     -1.06874050	      0.89277654	      1.06836756	     17.44560308	     -6.38695431	     -8.09475162	    -62.70798289	     -1.09446077	     -1.22517050	    -16.85052988	     19.89801097	     20.56212486	     -0.60458932	     10.97575506	    -31.43160161	     -0.54858494	      9.93498651	     12.11569489	      2.70639443	     -2.60907567	     -1.87587417	     -3.38493776	     -1.04115654	     -8.91913400	    -15.97246593	     23.86535267	     89.95437384	      0.00000000	      0.00000000	      0.92961491	     10.93732243	     19.04237898	     30.86368737	     89.95437384	      0.00000000	      0.00000000
      0.02000000	     -3.46466485	      0.40103499	     -1.34440442	     -1.06251696	      0.89332139	      1.06739428	     18.42622457	     -6.24645171	     -8.45691197	    -62.74556608	     -1.09511672	     -0.23337549	    -17.11242700	     19.59504148	     19.90750814	     -0.55086376	     10.84376940	    -31.16404707	     -0.54391523	     10.36437873	     11.84672529	      2.63207285	     -2.70264610	     -1.69812907	     -3.77938554	     -1.20179264	     -8.83008368	    -16.07760650	     23.83033753	     89.95437384	      0.00000000	      0.00000000	      1.42995620	     11.03948925	     19.07300043	     30.98665028	     89.95437384	      0.00000000	      0.00000000
      0.03000000	     -3.45661074	      0.25682057	     -1.05843908	     -1.05661054	      0.89379133	      1.06641753	     19.44487260	     -6.14099064	     -8.82778658	    -62.57846432	     -1.09220024	      0.53325333	    -17.12426005	     19.26665590	     19.35668948	     -0.50335623	     10.80910825	    -30.95116222	     -0.54019969	     10.59072427	     11.59252552	      2.56973982	     -2.80337055	     -1.55102644	     -4.23214218	     -1.35601083	     -8.67965053	    -16.15690467	     23.92654913	     89.95437384	      0.00000000	      0.00000000	      1.89549018	     11.17017074	     19.07247015	     31.22061991	     89.95437384	      0.00000000	      0.00000000
      0.04000000	     -3.38971880	      0.12512353	     -0.72762197	     -1.05050262	      0.89440862	      1.06535400	     20.26319337	     -5.99810315	     -9.17005577	    -62.11820225	     -1.08416715	      1.86530046	    -17.16043219	     18.95450046	     18.67713181	     -0.55255747	     10.44521968	    -30.65705832	     -0.53506661	     10.98973095	     11.11345305	      2.45819801	     -2.95759773	     -1.41056799	     -4.68035837	     -1.51159570	     -8.53977655	    -16.50105973	     23.97113641	     89.95437384	      0.00000000	      0.00000000	      2.39382922	     11.23121045	     19.19369913	     31.45437424	     89.95437384	      0.00000000	      0.00000000
      0.05000000	     -3.42592375	      0.03159808	     -0.53315930	     -1.04432564	      0.89480560	      1.06463177	     21.24698991	     -5.97481445	     -9.64083478	    -61.51874476	     -1.07370465	      2.42573638	    -17.07466079	     18.70453640	     18.09751308	     -0.47272913	     10.63689536	    -30.37399395	     -0.53012620	     11.18237156	     10.85443891	      2.39775525	     -2.94676782	     -1.32946051	     -5.01626714	     -1.72187202	     -8.42203153	    -16.56482796	     24.02276768	     89.95437384	      0.00000000	      0.00000000	      2.79698641	     11.35682542	     19.22065317	     31.68447979	     89.95437384	      0.00000000	      0.00000000
      0.06000000	     -3.23520496	     -0.12255325	     -0.23664527	     -1.03810403	      0.89556903	      1.06377041	     21.83740713	     -5.84083287	    -10.12814779	    -60.62714591	     -1.05814331	      3.45952571	    -17.11899874	     18.57764293	     17.22002892	     -0.41444963	     10.47578662	    -29.96788902	     -0.52303833	     11.48404251	     10.28010915	      2.26785689	     -3.22249122	     -1.16024601	     -5.41995163	     -1.84275880	     -8.27307940	    -16.89140425	     24.04442192	     89.95437384	      0.00000000	      0.00000000	      3.31242369	     11.40171350	     19.38539985	     31.88789954	     89.95437384	      0.00000000	      0.00000000
      0.07000000	     -3.36046923	     -0.12153011	     -0.07893487	     -1.03206231	      0.89572548	      1.06293209	     22.85474771	     -5.90297015	    -10.49998337	    -59.65633275	     -1.04119943	      3.87127472	    -17.02031170	     18.35171658	     16.77215275	     -0.42236812	     10.78211552	    -29.70675050	     -0.51848061	     11.60873257	     10.06721399	      2.21370398	     -3.13341551	     -1.14468428	     -5.69690651	     -2.03408886	     -8.20610597	    -16.89289813	     24.13054314	     89.95437384	      0.00000000	      0.00000000	      3.69737327	     11.48776370	     19.34103126	     32.19966815	     89.95437384	      0.00000000	      0.00000000
      0.08000000	     -3.09320086	     -0.25175858	      0.14253638	     -1.02579512	      0.89657859	      1.06225192	     23.22167739	     -5.72384190	    -10.91805233	    -58.27333498	     -1.01706156	      4.80810878	    -17.29761018	     18.51957141	     15.74462546	     -0.35721691	     10.68134737	    -29.17763850	     -0.50924586	     11.84930799	      9.34047699	      2.02252743	     -3.50409235	     -0.99545702	     -6.01881065	     -2.11498267	     -8.07459632	    -17.17854024	     24.14259371	     89.95437384	      0.00000000	      0.00000000	      4.16521597	     11.54315888	     19.47498281	     32.48443843	     89.95437384	      0.00000000	      0.00000000
      0.09000000	     -3.27777506	     -0.18428106	      0.21498180	     -1.01977697	      0.89651972	      1.06165288	     24.22904600	     -5.85027701	    -11.32574606	    -56.97716591	     -0.99443914	      5.08731954	    -17.20073630	     18.35951780	     15.37171386	     -0.41856735	     11.01803333	    -28.93565640	     -0.50502248	     11.98229932	      9.13909865	      1.95912438	     -3.34346026	     -1.06117984	     -6.19427281	     -2.31348779	     -8.03963961	    -17.17139594	     24.20189255	     89.95437384	      0.00000000	      0.00000000	      4.51676314	     11.63480441	     19.40442126	     32.85255042	     89.95437384	      0.00000000	      0.00000000
      0.10000000	     -2.92039384	     -0.41936080	      0.30608056	     -1.01331102	      0.89738407	      1.06148471	     24.37277645	     -5.44324502	    -11.66685814	    -55.18789468	     -0.96321047	      5.79449826	    -17.55271097	     19.91237597	     14.24299856	     -0.06198023	     11.38502190	    -28.43462044	     -0.49627775	     12.07349013	      7.81637691	      1.31522578	     -3.80147830	     -0.81557891	     -6.35491678	     -2.39200194	     -7.93743779	    -17.37089813	     24.22493381	     89.95437384	      0.00000000	      0.00000000	      4.92760003	     11.72317027	     19.29927331	     33.24747924	     89.95437384	      0.00000000	      0.00000000
      0.11000000	     -3.17128504	     -0.31636896	      0.36385659	     -1.00735994	      0.89705874	      1.06101886	     25.34765926	     -5.60317556	    -12.09851873	    -53.58983831	     -0.93531912	      6.03815740	    -17.49921762	     19.74630406	     13.96409089	     -0.18929255	     11.58334786	    -28.22741676	     -0.49266136	     12.25420376	      7.68981776	      1.24571557	     -3.57988912	     -0.91565259	     -6.49962909	     -2.57530059	     -7.87994053	    -17.31157840	     24.28548450	     89.95437384	      0.00000000	      0.00000000	      5.26729249	     11.82888274	     19.18441778	     33.65611873	     89.95437384	      0.00000000	      0.00000000
      0.12000000	     -3.41863375	     -0.19801280	      0.45014412	     -1.00138760	      0.89666409	      1.06050388	     26.25067538	     -5.75768395	    -12.46737967	    -51.86089057	     -0.90514329	      6.18320451	    -17.40629013	     19.58436226	     13.67404314	     -0.34196254	     11.76744805	    -28.01451925	     -0.48894560	     12.43843533	      7.54287080	      1.18258230	     -3.36610020	     -1.03539085	     -6.62708414	     -2.76831408	     -7.86792351	    -17.29952360	     24.33829030	     89.95437384	      0.00000000	      0.00000000	      5.60841721	     11.88683352	     19.07224925	     34.10055012	     89.95437384	      0.00000000	      0.00000000
      0.13000000	     -3.62393281	     -0.10617536	      0.53392482	     -0.99530107	      0.89632218	      1.06018150	     27.01012387	     -5.83968945	    -12.85929531	    -49.92645636	     -0.87138105	      6.28847219	    -17.43612091	     19.51608103	     13.29757802	     -0.47336849	     11.85005796	    -27.72426141	     -0.48387964	     12.69067054	      7.37378537	      1.10823646	     -3.19367891	     -1.13451960	     -6.80026740	     -2.90420253	     -7.79900103	    -17.31992145	     24.33537490	     89.95437384	      0.00000000	      0.00000000	      5.89979070	     11.99210615	     18.93061019	     34.53964687	     89.95437384	      0.00000000	      0.00000000
      0.14000000	     -2.98934289	     -0.60671382	      0.88249230	     -0.98873373	      0.89742383	      1.06009220	     26.46525998	     -5.25520589	    -13.60412992	    -47.43625836	     -0.82791889	      5.91483653	    -17.72346664	     20.10928602	     11.89213264	      0.02003036	     11.42250191	    -27.25120177	     -0.47562320	     13.01426504	      6.92500679	      0.86581440	     -4.00266270	     -0.58077200	     -7.23271939	     -2.79328258	     -7.70579437	    -17.53362314	     24.21965665	     89.95437384	      0.00000000	      0.00000000	      6.22261807	     12.15186076	     18.58290800	     35.14881366	     89.95437384	      0.00000000	      0.00000000
      0.15000000	     -3.14116723	     -0.54911467	      0.93567288	     -0.98268088	      0.89699579	      1.06001106	     27.07378494	     -5.25058617	    -13.87865923	    -45.32095251	     -0.79099984	      5.95265774	    -17.54994066	     20.15494594	     11.48527540	     -0.03332754	     11.52425655	    -27.02037611	     -0.47159453	     13.18760746	      6.55048275	      0.70365857	     -3.91797121	     -0.64836229	     -7.34163819	     -2.92171661	     -7.66507337	    -17.55246986	     24.24895459	     89.95437384	      0.00000000	      0.00000000	      6.52076557	     12.26043412	     18.36382399	     35.62395863	     89.95437384	      0.00000000	      0.00000000
